<svg width="46" height="47" viewBox="0 0 46 47" fill="none" xmlns="http://www.w3.org/2000/svg">
<path opacity="0.1" fill-rule="evenodd" clip-rule="evenodd" d="M22.8711 45.1484C34.8639 45.1484 44.5859 35.4264 44.5859 23.4336C44.5859 11.4408 34.8639 1.71875 22.8711 1.71875C10.8783 1.71875 1.15625 11.4408 1.15625 23.4336C1.15625 35.4264 10.8783 45.1484 22.8711 45.1484Z" stroke="#5468E7" stroke-width="1.91602"/>
<path d="M30.6915 43.6976C38.82 40.5585 44.5859 32.6694 44.5859 23.4336C44.5859 11.4408 34.8639 1.71875 22.8711 1.71875" stroke="#546FFF" stroke-width="1.91602" stroke-linecap="round" stroke-linejoin="round"/>
<path d="M14.8586 27.7695V25.7922H10.651V24.861L14.8356 19.2049H15.9162V24.861H17.0313V25.7922H15.9162V27.7695H14.8586ZM11.5017 25.2634L11.3408 24.861H14.8586V20.1476L15.192 20.2396L11.5017 25.2634ZM20.7066 27.9075C20.2621 27.9075 19.8444 27.8308 19.4535 27.6776C19.0627 27.5166 18.7216 27.2905 18.4304 26.9993C18.1468 26.7004 17.9399 26.3517 17.8096 25.9531L18.7293 25.5623C18.8902 25.9838 19.1508 26.3134 19.511 26.5509C19.8789 26.7809 20.2774 26.8958 20.7066 26.8958C21.0591 26.8958 21.3695 26.8192 21.6378 26.6659C21.9137 26.505 22.1283 26.2865 22.2816 26.0106C22.4348 25.7271 22.5115 25.4128 22.5115 25.0679C22.5115 24.7077 22.431 24.3897 22.2701 24.1138C22.1168 23.8379 21.906 23.6233 21.6378 23.47C21.3695 23.309 21.063 23.2286 20.7181 23.2286C20.3655 23.2286 20.0437 23.309 19.7524 23.47C19.4612 23.6309 19.2504 23.834 19.1201 24.0793L18.2119 23.8839L18.8672 19.2049H23.3047V20.1821H19.2926L19.7294 19.7453L19.2236 23.378L18.8327 23.1481C19.0856 22.8262 19.3807 22.5963 19.7179 22.4583C20.0628 22.3127 20.4345 22.2399 20.8331 22.2399C21.3925 22.2399 21.883 22.3664 22.3046 22.6193C22.7261 22.8722 23.0556 23.2094 23.2932 23.6309C23.5308 24.0525 23.6496 24.5315 23.6496 25.0679C23.6496 25.6044 23.5193 26.0873 23.2587 26.5165C23.0058 26.9456 22.6571 27.2867 22.2126 27.5396C21.7757 27.7849 21.2737 27.9075 20.7066 27.9075ZM25.7558 27.7695L32.7454 19.2049H34.0215L27.0319 27.7695H25.7558ZM27.0434 23.5505C26.6218 23.5505 26.2425 23.4508 25.9053 23.2516C25.568 23.0446 25.296 22.7726 25.089 22.4353C24.8898 22.0981 24.7901 21.7226 24.7901 21.3087C24.7901 20.8949 24.8898 20.5193 25.089 20.1821C25.296 19.8372 25.568 19.5652 25.9053 19.3659C26.2425 19.1666 26.6218 19.067 27.0434 19.067C27.4572 19.067 27.8328 19.1666 28.17 19.3659C28.5072 19.5652 28.7754 19.8372 28.9747 20.1821C29.174 20.5193 29.2736 20.8949 29.2736 21.3087C29.2736 21.7226 29.174 22.0981 28.9747 22.4353C28.7754 22.7726 28.5072 23.0446 28.17 23.2516C27.8328 23.4508 27.4572 23.5505 27.0434 23.5505ZM27.0319 22.6078C27.2925 22.6078 27.5147 22.5465 27.6986 22.4238C27.8826 22.3012 28.0282 22.1403 28.1355 21.941C28.2428 21.7417 28.2964 21.531 28.2964 21.3087C28.2964 21.0788 28.2428 20.868 28.1355 20.6764C28.0282 20.4772 27.8826 20.3162 27.6986 20.1936C27.5147 20.0633 27.2925 19.9982 27.0319 19.9982C26.7866 19.9982 26.5682 20.0633 26.3766 20.1936C26.185 20.3162 26.0355 20.4772 25.9282 20.6764C25.821 20.8757 25.7673 21.0865 25.7673 21.3087C25.7673 21.5233 25.821 21.7341 25.9282 21.941C26.0355 22.1403 26.185 22.3012 26.3766 22.4238C26.5682 22.5465 26.7866 22.6078 27.0319 22.6078ZM32.665 27.9075C32.2434 27.9075 31.8641 27.8079 31.5268 27.6086C31.1896 27.4017 30.9176 27.1296 30.7106 26.7924C30.5114 26.4551 30.4117 26.0796 30.4117 25.6657C30.4117 25.2519 30.5114 24.8763 30.7106 24.5391C30.9176 24.1942 31.1896 23.9222 31.5268 23.7229C31.8641 23.5236 32.2434 23.424 32.665 23.424C33.0788 23.424 33.4544 23.5236 33.7916 23.7229C34.1288 23.9222 34.397 24.1942 34.5963 24.5391C34.7956 24.8763 34.8952 25.2519 34.8952 25.6657C34.8952 26.0796 34.7956 26.4551 34.5963 26.7924C34.397 27.1296 34.1288 27.4017 33.7916 27.6086C33.4544 27.8079 33.0788 27.9075 32.665 27.9075ZM32.665 26.9648C32.9179 26.9648 33.1363 26.9035 33.3202 26.7809C33.5118 26.6582 33.6575 26.4973 33.7571 26.298C33.8644 26.0988 33.918 25.888 33.918 25.6657C33.918 25.4358 33.8644 25.2251 33.7571 25.0335C33.6575 24.8342 33.5118 24.6733 33.3202 24.5506C33.1363 24.4203 32.9179 24.3552 32.665 24.3552C32.4197 24.3552 32.1975 24.4203 31.9982 24.5506C31.8066 24.6733 31.6571 24.8342 31.5498 25.0335C31.4425 25.2327 31.3889 25.4435 31.3889 25.6657C31.3889 25.8803 31.4425 26.0911 31.5498 26.298C31.6571 26.4973 31.8066 26.6582 31.9982 26.7809C32.1975 26.9035 32.4197 26.9648 32.665 26.9648Z" fill="#F5F5F5"/>
</svg>
