<svg width="17" height="16" viewBox="0 0 17 16" fill="none" xmlns="http://www.w3.org/2000/svg">
<path fill-rule="evenodd" clip-rule="evenodd" d="M3.21635 9.4031V9.26324C3.23687 8.84945 3.36948 8.44852 3.60053 8.1018C3.9851 7.68529 4.24836 7.17489 4.36269 6.62415C4.36269 6.19849 4.36269 5.76675 4.39987 5.34109C4.59196 3.29184 6.6182 1.875 8.61966 1.875H8.66923C10.6707 1.875 12.6969 3.29184 12.8952 5.34109C12.9324 5.76675 12.8952 6.19849 12.9262 6.62415C13.0421 7.17617 13.3051 7.68816 13.6884 8.10788C13.9211 8.45154 14.054 8.851 14.0725 9.26324V9.39702C14.0864 9.95295 13.8949 10.495 13.5335 10.9233C13.0558 11.4241 12.4077 11.7356 11.7117 11.799C9.67087 12.0179 7.61182 12.0179 5.571 11.799C4.87582 11.7329 4.2286 11.4218 3.74924 10.9233C3.39337 10.4947 3.20448 9.95585 3.21635 9.4031Z" stroke="#7676B2" stroke-width="0.958008" stroke-linecap="round" stroke-linejoin="round"/>
<path d="M7.08289 13.9152C7.40176 14.3154 7.87002 14.5744 8.38405 14.6349C8.89807 14.6954 9.41546 14.5524 9.82172 14.2374C9.94667 14.1443 10.0591 14.036 10.1563 13.9152" stroke="#7676B2" stroke-width="0.958008" stroke-linecap="round" stroke-linejoin="round"/>
</svg>
