<svg width="92" height="92" viewBox="0 0 92 92" fill="none" xmlns="http://www.w3.org/2000/svg">
<g filter="url(#filter0_d_1350_2774)">
<rect x="24" y="16" width="44" height="44" rx="10" fill="#5468E7" shape-rendering="crispEdges"/>
<path d="M50.14 28.96L41.11 31.96C35.04 33.99 35.04 37.3 41.11 39.32L43.79 40.21L44.68 42.89C46.7 48.96 50.02 48.96 52.04 42.89L55.05 33.87C56.39 29.82 54.19 27.61 50.14 28.96ZM50.46 34.34L46.66 38.16C46.51 38.31 46.32 38.38 46.13 38.38C45.94 38.38 45.75 38.31 45.6 38.16C45.31 37.87 45.31 37.39 45.6 37.1L49.4 33.28C49.69 32.99 50.17 32.99 50.46 33.28C50.75 33.57 50.75 34.05 50.46 34.34Z" fill="#F5F5F5"/>
</g>
<defs>
<filter id="filter0_d_1350_2774" x="0" y="0" width="92" height="92" filterUnits="userSpaceOnUse" color-interpolation-filters="sRGB">
<feFlood flood-opacity="0" result="BackgroundImageFix"/>
<feColorMatrix in="SourceAlpha" type="matrix" values="0 0 0 0 0 0 0 0 0 0 0 0 0 0 0 0 0 0 127 0" result="hardAlpha"/>
<feOffset dy="8"/>
<feGaussianBlur stdDeviation="12"/>
<feComposite in2="hardAlpha" operator="out"/>
<feColorMatrix type="matrix" values="0 0 0 0 0.462745 0 0 0 0 0.462745 0 0 0 0 0.698039 0 0 0 0.24 0"/>
<feBlend mode="normal" in2="BackgroundImageFix" result="effect1_dropShadow_1350_2774"/>
<feBlend mode="normal" in="SourceGraphic" in2="effect1_dropShadow_1350_2774" result="shape"/>
</filter>
</defs>
</svg>
