<svg width="85" height="21" viewBox="0 0 85 21" fill="none" xmlns="http://www.w3.org/2000/svg">
<path d="M3.17756 20.4375V0.112405H7.53075V20.4375H3.17756ZM0.142594 8.11369V4.22034H10.8416V8.11369H0.142594ZM20.6109 20.7441C18.8533 20.7441 17.3205 20.3864 16.0125 19.6711C14.7045 18.9558 13.6826 17.9748 12.9468 16.7281C12.2111 15.4814 11.8432 14.0508 11.8432 12.4362C11.8432 11.1895 12.0476 10.045 12.4563 9.00272C12.8651 7.96041 13.4373 7.06116 14.1731 6.30497C14.9088 5.52834 15.7774 4.93566 16.7789 4.5269C17.8008 4.09772 18.9044 3.88312 20.0898 3.88312C21.1934 3.88312 22.2153 4.0875 23.1554 4.49625C24.0955 4.88456 24.9028 5.44659 25.5772 6.18234C26.2721 6.89766 26.8035 7.74581 27.1713 8.72681C27.5392 9.70781 27.7027 10.7808 27.6618 11.9457L27.6312 13.2946H14.6023L13.8972 10.6275H24.0444L23.5539 11.1793V10.5049C23.513 9.95306 23.3291 9.45234 23.0021 9.00272C22.6955 8.55309 22.297 8.20566 21.8065 7.96041C21.316 7.71516 20.7642 7.59253 20.1511 7.59253C19.2518 7.59253 18.4854 7.76625 17.8518 8.11369C17.2387 8.46112 16.7687 8.97206 16.4417 9.6465C16.1147 10.3209 15.9512 11.1384 15.9512 12.099C15.9512 13.08 16.1555 13.9282 16.5643 14.6435C16.9935 15.3588 17.5862 15.9208 18.3423 16.3296C19.119 16.7179 20.0284 16.912 21.0708 16.912C21.7861 16.912 22.4401 16.7996 23.0328 16.5748C23.6254 16.35 24.259 15.9617 24.9334 15.4099L27.0181 18.3222C26.4254 18.8536 25.7714 19.3032 25.0561 19.6711C24.3408 20.0185 23.605 20.2842 22.8488 20.4682C22.0926 20.6521 21.3467 20.7441 20.6109 20.7441ZM36.3357 20.7441C34.9868 20.7441 33.7707 20.3762 32.6876 19.6404C31.6044 18.9047 30.746 17.9032 30.1124 16.6361C29.4789 15.369 29.1621 13.9179 29.1621 12.2829C29.1621 10.6479 29.4789 9.20709 30.1124 7.96041C30.7664 6.69328 31.6452 5.70206 32.7489 4.98675C33.8525 4.251 35.1094 3.88312 36.5196 3.88312C37.3167 3.88312 38.0422 4.00575 38.6962 4.251C39.3706 4.47581 39.9531 4.79259 40.4436 5.20134C40.9545 5.61009 41.3837 6.08016 41.7312 6.61153C42.0786 7.14291 42.3238 7.71516 42.4669 8.32828L41.5472 8.175V4.22034H45.8697V20.4375H41.4859V16.5442L42.4669 16.4522C42.3034 17.0244 42.0377 17.566 41.6698 18.077C41.302 18.5879 40.8421 19.0477 40.2903 19.4565C39.7589 19.8448 39.156 20.1616 38.4816 20.4068C37.8072 20.6317 37.0918 20.7441 36.3357 20.7441ZM37.5312 16.9733C38.3487 16.9733 39.0641 16.7792 39.6772 16.3909C40.2903 16.0026 40.7604 15.461 41.0874 14.7661C41.4348 14.0508 41.6085 13.2231 41.6085 12.2829C41.6085 11.3632 41.4348 10.556 41.0874 9.86109C40.7604 9.16622 40.2903 8.62462 39.6772 8.23631C39.0641 7.82756 38.3487 7.62319 37.5312 7.62319C36.7342 7.62319 36.0291 7.82756 35.416 8.23631C34.8233 8.62462 34.3532 9.16622 34.0058 9.86109C33.6583 10.556 33.4846 11.3632 33.4846 12.2829C33.4846 13.2231 33.6583 14.0508 34.0058 14.7661C34.3532 15.461 34.8233 16.0026 35.416 16.3909C36.0291 16.7792 36.7342 16.9733 37.5312 16.9733ZM49.5904 20.4375V4.22034H53.7903L53.8823 7.31662L53.2385 7.43925C53.4633 6.90787 53.7597 6.42759 54.1275 5.99841C54.4954 5.56922 54.9246 5.20134 55.4151 4.89478C55.926 4.58822 56.4574 4.35319 57.0092 4.18969C57.561 4.00575 58.1128 3.91378 58.6647 3.91378C59.5026 3.91378 60.2588 4.04662 60.9332 4.31231C61.6077 4.578 62.1799 4.99697 62.65 5.56922C63.12 6.12103 63.4879 6.85678 63.7536 7.77647L63.0792 7.71516L63.2938 7.22466C63.5594 6.73416 63.8967 6.29475 64.3054 5.90644C64.7142 5.49769 65.174 5.15025 65.6849 4.86412C66.1959 4.55756 66.7273 4.32253 67.2791 4.15903C67.8309 3.99553 68.3725 3.91378 68.9038 3.91378C70.171 3.91378 71.2235 4.16925 72.0614 4.68019C72.8994 5.17069 73.5227 5.91666 73.9315 6.91809C74.3607 7.91953 74.5753 9.14578 74.5753 10.5968V20.4375H70.2221V10.9034C70.2221 10.1677 70.1199 9.56475 69.9155 9.09469C69.7111 8.62462 69.4148 8.27719 69.0265 8.05237C68.6382 7.80712 68.1374 7.6845 67.5243 7.6845C67.0543 7.6845 66.6148 7.76625 66.2061 7.92975C65.8178 8.07281 65.4703 8.28741 65.1638 8.57353C64.8777 8.83922 64.6528 9.156 64.4893 9.52387C64.3258 9.89175 64.2441 10.3005 64.2441 10.7501V20.4375H59.8909V10.8727C59.8909 10.1983 59.7785 9.62606 59.5537 9.156C59.3493 8.6655 59.053 8.29762 58.6647 8.05237C58.2763 7.80712 57.7961 7.6845 57.2238 7.6845C56.7538 7.6845 56.3143 7.76625 55.9056 7.92975C55.5173 8.07281 55.1801 8.28741 54.8939 8.57353C54.6078 8.83922 54.3728 9.156 54.1888 9.52387C54.0253 9.89175 53.9436 10.2903 53.9436 10.7195V20.4375H49.5904Z" fill="#232340"/>
<path d="M80.9993 20.8871C79.9366 20.8871 79.1191 20.5874 78.5468 19.9879C77.9746 19.3884 77.6885 18.53 77.6885 17.4127C77.6885 16.4045 77.9882 15.587 78.5877 14.9602C79.2145 14.3062 80.0183 13.9792 80.9993 13.9792C82.0348 13.9792 82.8387 14.279 83.411 14.8785C83.9832 15.478 84.2693 16.3227 84.2693 17.4127C84.2693 18.4482 83.9696 19.293 83.3701 19.947C82.7706 20.5738 81.9803 20.8871 80.9993 20.8871Z" fill="#5468E7"/>
</svg>
